/* XPM */
static char *bdba6b06e6144498f60fbd14415b5a33haBVgQa9Wqoa4xIA[] = {
/* columns rows colors chars-per-pixel */
"42 42 14 1 ",
"  c black",
". c gray27",
"X c #615E5E",
"o c #6F6E6E",
"O c #808080",
"+ c #8E8E8E",
"@ c #9C9797",
"# c #9D9797",
"$ c #ABA4A4",
"% c gray74",
"& c #CACACA",
"* c #CCC8C8",
"= c #E6E1E1",
"- c white",
/* pixels */
"------------------------------------------",
"------------------------------------------",
"------------------------------------------",
"------------------------------------------",
"------------------------------------------",
"------------------------------------------",
"------------------------------------------",
"------------------------------------------",
"------------------------------------------",
"------------------------------------------",
"------------------------------------------",
"------------------------------------------",
"--------------------   -------------------",
"------------------- *=* ------------------",
"------------------ O*=*O -----------------",
"----------------- &*O*O*& ----------------",
"---------------- %+&O*O&+% ---------------",
"---------------- O%%&O&%%O ---------------",
"---------------- O*+%%%+*O ---------------",
"---------------- $O*+%+*O$ ---------------",
"---------------- O$O*+*O$O ---------------",
"---------------- OO$O*O$OO ---------------",
"---------------- @OO$O$OO@ ---------------",
"---------------- oOOo$oOOo ---------------",
"---------     -- OooOoOooO ---------------",
"--------- *OO%   XXOoOoOXX ---------------",
"--------- O*O%OX @OXX$XXO@ -     ---------",
"--------- OO%OXO O@@OXO@@O  %OO* ---------",
"--------- O%OXO@O.OO@O@OO. OO%*O ---------",
"---------- OXO@OOO..O@O..O @@%OO ---------",
"----------- O@OOOOOO.@.OOoO@OO%O ---------",
"------------ OOOOoOO..O.OOoO@OO% ---------",
"--------      OOoOO.O@OOoXOoO@O ----------",
"-------- OoOOOOoOOo@OOOOO.OOoO -----------",
"-------- OOoOOoOO.OOXO@OOO.OO ------------",
"---------                    -------------",
"------------------------------------------",
"------------------------------------------",
"------------------------------------------",
"------------------------------------------",
"------------------------------------------",
"------------------------------------------"
};
