/* XPM */
static char *bc19f4f090dd4173afde544272dcbe44qVrQQcyVObpvCbmk[] = {
/* columns rows colors chars-per-pixel */
"42 42 3 1 ",
"  c black",
". c #2F2F2F",
"X c white",
/* pixels */
"XXXXXXXXXXXXXXXXXXXXXXXXXXXXXXXXXXXXXXXXXX",
"XXXXXXXXXXXXXXXXXXXXXXXXXXXXXXXXXXXXXXXXXX",
"XXXXXXXXXXXXXXXXXXXXXXXXXXXXXXXXXXXXXXXXXX",
"XXXXXXXXXXXXXXXXXXXXXXXXXXXXXXXXXXXXXXXXXX",
"XXXXXXXXXXXXXXXXX         XXXXXXXXXXXXXXXX",
"XXXXXXXXXXXXXX               XXXXXXXXXXXXX",
"XXXXXXXXXXXX                   XXXXXXXXXXX",
"XXXXXXXXXXX       .......       XXXXXXXXXX",
"XXXXXXXXXX      ..       ..      XXXXXXXXX",
"XXXXXXXXX     ..           ..     XXXXXXXX",
"XXXXXXXX     .     XX XX     .     XXXXXXX",
"XXXXXXXX    .    XXXX XXXX    .    XXXXXXX",
"XXXXXXX    .   XXXXXX XXXXXX   .    XXXXXX",
"XXXXXXX   .   XXXXXXX XXXXXXX   .   XXXXXX",
"XXXXXXX   .   XXXXXXX XXXXXXX   .   XXXXXX",
"XXXXXXX   .   XXXXXXX XXXXXXX   .   XXXXXX",
"XXXXXXX   .                     .   XXXXXX",
"XXXXXXX   .   XXXXXXX XXXXXXX   .   XXXXXX",
"XXXXXXX   .   XXXXXXX XXXXXXX   .   XXXXXX",
"XXXXXXX   .   XXXXXXX XXXXXXX   .   XXXXXX",
"XXXXXXX   .   XXXXXXX XXXXXXX   .   XXXXXX",
"XXXXXXX   .   XXXXXXX XXXXXXX   .   XXXXXX",
"XXXXXXX   .   XXXXXXX XXXXXXX   .   XXXXXX",
"XXXXXXX   .   XXXXXXX XXXXXXX   .   XXXXXX",
"XXXXXXX   .   XXXXXXX XXXXXXX   .   XXXXXX",
"XXXXXXX   .                     .   XXXXXX",
"XXXXXXX   .   XXXXXXX XXXXXXX   .   XXXXXX",
"XXXXXXX   .   XXXXXXX XXXXXXX   .   XXXXXX",
"XXXXXXX   .   XXXXXXX XXXXXXX   .   XXXXXX",
"XXXXXXX   .   XXXXXXX XXXXXXX   .   XXXXXX",
"XXXXXXX    .   XXXXXX XXXXXX   .    XXXXXX",
"XXXXXXXX    .    XXXX XXXX    .    XXXXXXX",
"XXXXXXXX     .     XX XX     .     XXXXXXX",
"XXXXXXXXX     ..           ..     XXXXXXXX",
"XXXXXXXXXX      ..       ..      XXXXXXXXX",
"XXXXXXXXXXX       .......       XXXXXXXXXX",
"XXXXXXXXXXXX                   XXXXXXXXXXX",
"XXXXXXXXXXXXXX               XXXXXXXXXXXXX",
"XXXXXXXXXXXXXXXXX         XXXXXXXXXXXXXXXX",
"XXXXXXXXXXXXXXXXXXXXXXXXXXXXXXXXXXXXXXXXXX",
"XXXXXXXXXXXXXXXXXXXXXXXXXXXXXXXXXXXXXXXXXX",
"XXXXXXXXXXXXXXXXXXXXXXXXXXXXXXXXXXXXXXXXXX"
};
