/* XPM */
static char *ef33b238e8a54d46b97cacd7e8f66530AwZfBEdHdRsOTvIT[] = {
/* columns rows colors chars-per-pixel */
"42 42 5 1 ",
"  c black",
". c #023565",
"X c #830D0D",
"o c #980B0B",
"O c #1B5B98",
/* pixels */
"                                          ",
"                                          ",
"                                          ",
"                                          ",
"                                          ",
"                                          ",
"                                          ",
"       XXXXXX                  ......     ",
"       XXXXXX                  ......     ",
"       XXXXXX                  ......     ",
"       XXXooo                  ......     ",
"       XXXooo                  OOO...     ",
"       XXXooo                  OOO...     ",
"       XXXooo                  OOO...     ",
"                               OOO...     ",
"                                          ",
"                                          ",
"                                          ",
"                                          ",
"                                          ",
"                                          ",
"                                          ",
"                                          ",
"                                          ",
"                                          ",
"                                          ",
"       ooo                        OOO     ",
"       ooo                        OOO     ",
"       oooo                      OOOO     ",
"        oooX                    .OOO      ",
"         oooXX                ..OOO       ",
"          ooooXXX          ...OOOO        ",
"            ooooooXXXX....OOOOOO          ",
"               oooooooOOOOO               ",
"                                          ",
"                                          ",
"                                          ",
"                                          ",
"                                          ",
"                                          ",
"                                          ",
"                                          "
};
