/* XPM */
static char *bdb94d6f9e624e7b9efcb391e488cfc1Li5Fc3eafiqzBsxt[] = {
/* columns rows colors chars-per-pixel */
"42 42 6 1 ",
"  c black",
". c #272727",
"X c #9D9D9D",
"o c gray63",
"O c #F5F3F3",
"+ c white",
/* pixels */
"++++++++++++++++++++++++++++++++++++++++++",
"++++++++++++++++++++++++++++++++++++++++++",
"++++++++++++++++++++++++++++++++++++++++++",
"++++++++++++++++++++++++++++++++++++++++++",
"++++++++++++++++++++++++++++++++++++++++++",
"++++++++++++++++++++++++++++++++++++++++++",
"++++++++++++++++++++++++++++++++++++++++++",
"++++++++++++++++++++++++++++++++++++++++++",
"++++++++   +++++++++++++++++++++   +++++++",
"++++++++   +++++++++++++++++++++   +++++++",
"++++++++   +++++++++++++++++++++   +++++++",
"+++++++++++   +++++++++++++++   ++++++++++",
"+++++++++++   +++++++++++++++   ++++++++++",
"+++++++++++   +++++++++++++++   ++++++++++",
"++++++++                           +++++++",
"++++++++                           +++++++",
"++++++++                           +++++++",
"+++++      OOO...         ...OOO      ++++",
"+++++      OOO...         ...OOO      ++++",
"+++++      OOO...         ...OOO      ++++",
"++                                       +",
"++                                       +",
"++                                       +",
"++   +++                           ooo   +",
"++   +++                           ooo   +",
"++   +++                           ooo   +",
"++   +++   ooooooooooooooooooooo   ooo   +",
"++   +++   ooooooooooooooooooooo   ooo   +",
"++   +++   ooooooooooooooooooooo   ooo   +",
"++ooo+++ooo      +++++++++      ooo+++XXX+",
"++ooo+++ooo      +++++++++      ooo+++XXX+",
"++ooo+++ooo      +++++++++      ooo+++XXX+",
"+++++++++++oooooo+++++++++oooooo++++++++++",
"+++++++++++oooooo+++++++++oooooo++++++++++",
"+++++++++++oooooo+++++++++oooooo++++++++++",
"++++++++++++++++++++++++++++++++++++++++++",
"++++++++++++++++++++++++++++++++++++++++++",
"++++++++++++++++++++++++++++++++++++++++++",
"++++++++++++++++++++++++++++++++++++++++++",
"++++++++++++++++++++++++++++++++++++++++++",
"++++++++++++++++++++++++++++++++++++++++++",
"++++++++++++++++++++++++++++++++++++++++++"
};
