/* XPM */
static char *_19ef0d857a24cbea58cfa207f97402ejgnxOe86hvdjOTkm[] = {
/* columns rows colors chars-per-pixel */
"42 42 4 1 ",
"  c black",
". c #C5C5C5",
"X c #DDDDDD",
"o c white",
/* pixels */
"oooooooooooooooooooooooooooooooooooooooooo",
"oooooooooooooooooooooooooooooooooooooooooo",
"oooooooooooooooooooooooooooooooooooooooooo",
"oooooooooooooooooooooooooooooooooooooooooo",
"oooooooooooooooooooooooooooooooooooooooooo",
"oooooooooooooooooooooooooooooooooooooooooo",
"oooooooooooooooooooooooooooooooooooooooooo",
"oooooooooooooooooooooooooooooooooooooooooo",
"oooooooooooooo   ooooooooo   ooooooooooooo",
"oooooooooooooo   ooooooooo   ooooooooooooo",
"oooooooooooooo   ooooooooo   ooooooooooooo",
"oooooooooooooo...         ...ooooooooooooo",
"oooooooooooooo...         ...ooooooooooooo",
"oooooooooooooo...         ...ooooooooooooo",
"oooooooooooooo   ...   ...   ooooooooooooo",
"oooooooooooooo   ...   ...   ooooooooooooo",
"oooooooooooooo   ...   ...   ooooooooooooo",
"ooooooooooo      XXX   XXX      oooooooooo",
"ooooooooooo      XXX   XXX      oooooooooo",
"ooooooooooo      XXX   XXX      oooooooooo",
"ooooooooooo                     oooooooooo",
"ooooooooooo                     oooooooooo",
"ooooooooooo                     oooooooooo",
"ooooooooooo...               ...oooooooooo",
"ooooooooooo...               ...oooooooooo",
"ooooooooooo...               ...oooooooooo",
"ooooooooooo   ...   ooo   ooo   oooooooooo",
"ooooooooooo   ...   ooo   ooo   oooooooooo",
"ooooooooooo   ...   ooo   ooo   oooooooooo",
"ooooooooooo...ooo...ooo...ooo...oooooooooo",
"ooooooooooo...ooo...ooo...ooo...oooooooooo",
"ooooooooooo...ooo...ooo...ooo...oooooooooo",
"oooooooooooooooooooooooooooooooooooooooooo",
"oooooooooooooooooooooooooooooooooooooooooo",
"oooooooooooooooooooooooooooooooooooooooooo",
"oooooooooooooooooooooooooooooooooooooooooo",
"oooooooooooooooooooooooooooooooooooooooooo",
"oooooooooooooooooooooooooooooooooooooooooo",
"oooooooooooooooooooooooooooooooooooooooooo",
"oooooooooooooooooooooooooooooooooooooooooo",
"oooooooooooooooooooooooooooooooooooooooooo",
"oooooooooooooooooooooooooooooooooooooooooo"
};
