/* XPM */
static char *a970e6529d374279d4381f01d6d84b061wGGJmaC2zMVvaKb[] = {
/* columns rows colors chars-per-pixel */
"42 42 3 1 ",
"  c black",
". c #CACACA",
"X c white",
/* pixels */
"XXXXXXXXXXXXXXXXXXXXXXXXXXXXXXXXXXXXXXXXXX",
"XXXXXXXXXXXXXXXXXXXXXXXXXXXXXXXXXXXXXXXXXX",
"XXXXXXXXXXXXXXXXXXXXXXXXXXXXXXXXXXXXXXXXXX",
"XXXXXXXXXXXXXXXXXXXXXXXXXXXXXXXXXXXXXXXXXX",
"XXXXXXXXXXXXXXXXXXXXXXXXXXXXXXXXXXXXXXXXXX",
"XXXXXXXXXXXXXXXXXXXXXXXXXXXXXXXXXXXXXXXXXX",
"XXXXXXXXXXXXXXXXXXXXXXXXXXXXXXXXXXXXXXXXXX",
"XXXXXXXXXX   XXXXXXXXXXXXXXXX   XXXXXXXXXX",
"XXXXXXXXXX   XXXXXXXXXXXXXXXX   XXXXXXXXXX",
"XXXXXXXXXX   XXXXXXXXXXXXXXXX   XXXXXXXXXX",
"XXXX   XXXXXX   XXXXXXXXXX   XXXXXX   XXXX",
"XXXX   XXXXXX   XXXXXXXXXX   XXXXXX   XXXX",
"XXXX   XXXXXX   XXXX   XXX   XXXXXX   XXXX",
"XXXX   XXX                      XXX   XXXX",
"XXXX   XXX                      XXX   XXXX",
"XXXX   XXX                      XXX   XXXX",
"XXXX         ...          ...         XXXX",
"XXXX         ...          ...         XXXX",
"XXXX         ...          ...         XXXX",
"XXXXXXX      XXX          XXX      XXXXXXX",
"XXXXXXX      XXX          XXX      XXXXXXX",
"XXXXXXX      XXX          XXX      XXXXXXX",
"XXXXXXX                            XXXXXXX",
"XXXXXXX                            XXXXXXX",
"XXXXXXX                            XXXXXXX",
"XXXXXXX                            XXXXXXX",
"XXXXXXX                            XXXXXXX",
"XXXXXXX                            XXXXXXX",
"XXXXXXX   ...   ..........   XXX   XXXXXXX",
"XXXXXXX   ...   ..........   XXX   XXXXXXX",
"XXXXXXX   ...   ..........   XXX   XXXXXXX",
"XXXX      XXX...   XXXX   ...XXX      XXXX",
"XXXX      XXX...   XXXX   ...XXX      XXXX",
"XXXX      XXX...   XXXX   ...XXX      XXXX",
"XXXX......XXXXXX...XXXX...XXXXXX......XXXX",
"XXXX......XXXXXX...XXXX...XXXXXX......XXXX",
"XXXX......XXXXXX...XXXX...XXXXXX......XXXX",
"XXXXXXXXXXXXXXXXXXXXXXXXXXXXXXXXXXXXXXXXXX",
"XXXXXXXXXXXXXXXXXXXXXXXXXXXXXXXXXXXXXXXXXX",
"XXXXXXXXXXXXXXXXXXXXXXXXXXXXXXXXXXXXXXXXXX",
"XXXXXXXXXXXXXXXXXXXXXXXXXXXXXXXXXXXXXXXXXX",
"XXXXXXXXXXXXXXXXXXXXXXXXXXXXXXXXXXXXXXXXXX"
};
