/* XPM */
static char *_26e40d23e204075d2ffab3819c33e604s6LPyN4gVuEfbuW[] = {
/* columns rows colors chars-per-pixel */
"42 42 4 1 ",
"  c black",
". c #C5C5C5",
"X c #DDDDDD",
"o c white",
/* pixels */
"oooooooooooooooooooooooooooooooooooooooooo",
"oooooooooooooooooooooooooooooooooooooooooo",
"oooooooooooooooooooooooooooooooooooooooooo",
"oooooooooooooooooooooooooooooooooooooooooo",
"oooooooooooooooooooooooooooooooooooooooooo",
"oooooooooooooooooooooooooooooooooooooooooo",
"ooooooooooo   ooooooooooooooo   oooooooooo",
"ooooooooooo   ooooooooooooooo   oooooooooo",
"ooooooooooo   ooooooooooooooo   oooooooooo",
"ooooooooooo...               ...oooooooooo",
"ooooooooooo...               ...oooooooooo",
"ooooooooooo...               ...oooooooooo",
"ooooooooooo   ...         ...   oooooooooo",
"ooooooooooo   ...         ...   oooooooooo",
"ooooooooooo   ...         ...   oooooooooo",
"ooooooooooo   XXX         XXX   oooooooooo",
"ooooooooooo   XXX         XXX   oooooooooo",
"ooooooooooo   XXX         XXX   oooooooooo",
"ooooooooooo...      XXX      ...oooooooooo",
"ooooooooooo...      XXX      ...oooooooooo",
"ooooooooooo...      XXX      ...oooooooooo",
"ooooooooooo                     oooooooooo",
"ooooooooooo                     oooooooooo",
"ooooooooooo                     oooooooooo",
"ooooooooooo   ...   ...   ...   oooooooooo",
"ooooooooooo   ...   ...   ...   oooooooooo",
"ooooooooooo   ...   ...   ...   oooooooooo",
"ooooooooooo...ooo   ooo   ooo...oooooooooo",
"ooooooooooo...ooo   ooo   ooo...oooooooooo",
"ooooooooooo...ooo   ooo   ooo...oooooooooo",
"ooooooooooooooooo...ooo...oooooooooooooooo",
"ooooooooooooooooo...ooo...oooooooooooooooo",
"ooooooooooooooooo...ooo...oooooooooooooooo",
"oooooooooooooooooooooooooooooooooooooooooo",
"oooooooooooooooooooooooooooooooooooooooooo",
"oooooooooooooooooooooooooooooooooooooooooo",
"oooooooooooooooooooooooooooooooooooooooooo",
"oooooooooooooooooooooooooooooooooooooooooo",
"oooooooooooooooooooooooooooooooooooooooooo",
"oooooooooooooooooooooooooooooooooooooooooo",
"oooooooooooooooooooooooooooooooooooooooooo",
"oooooooooooooooooooooooooooooooooooooooooo"
};
