/* XPM */
static char *e0c2fcb5622346b8c9d730ab29c1de20sfct9vmPClg0lSps[] = {
/* columns rows colors chars-per-pixel */
"42 42 4 1 ",
"  c black",
". c #C5C5C5",
"X c #DDDDDD",
"o c white",
/* pixels */
"oooooooooooooooooooooooooooooooooooooooooo",
"oooooooooooooooooooooooooooooooooooooooooo",
"oooooooooooooooooooooooooooooooooooooooooo",
"oooooooooooooooooooooooooooooooooooooooooo",
"oooooooooooooooooooooooooooooooooooooooooo",
"oooooooooooooooooooooooooooooooooooooooooo",
"oooooooooooooooooooooooooooooooooooooooooo",
"ooooooooooooooooo         oooooooooooooooo",
"ooooooooooooooooo         oooooooooooooooo",
"ooooooooooooooooo         oooooooooooooooo",
"oooooooooooooo               ooooooooooooo",
"oooooooooooooo               ooooooooooooo",
"oooooooooooooo               ooooooooooooo",
"ooooooooooo   ...         ...   oooooooooo",
"ooooooooooo   ...         ...   oooooooooo",
"ooooooooooo   ...         ...   oooooooooo",
"ooooooooooo   XXX         XXX   oooooooooo",
"ooooooooooo   XXX         XXX   oooooooooo",
"ooooooooooo   XXX         XXX   oooooooooo",
"ooooooooooo...               ...oooooooooo",
"ooooooooooo...               ...oooooooooo",
"ooooooooooo...               ...oooooooooo",
"oooooooo   ooo...   ...   ...ooo   ooooooo",
"oooooooo   ooo...   ...   ...ooo   ooooooo",
"oooooooo   ooo...   ...   ...ooo   ooooooo",
"oooooooo...      ...   ...      ...ooooooo",
"oooooooo...      ...   ...      ...ooooooo",
"oooooooo...      ...   ...      ...ooooooo",
"ooooooooooo......ooo...ooo......oooooooooo",
"ooooooooooo......ooo...ooo......oooooooooo",
"ooooooooooo......ooo...ooo......oooooooooo",
"oooooooooooooooooooooooooooooooooooooooooo",
"oooooooooooooooooooooooooooooooooooooooooo",
"oooooooooooooooooooooooooooooooooooooooooo",
"oooooooooooooooooooooooooooooooooooooooooo",
"oooooooooooooooooooooooooooooooooooooooooo",
"oooooooooooooooooooooooooooooooooooooooooo",
"oooooooooooooooooooooooooooooooooooooooooo",
"oooooooooooooooooooooooooooooooooooooooooo",
"oooooooooooooooooooooooooooooooooooooooooo",
"oooooooooooooooooooooooooooooooooooooooooo",
"oooooooooooooooooooooooooooooooooooooooooo"
};
